<?xml version="1.0" encoding="UTF-8"?>
<svg id="Layer_2" data-name="Layer 2" xmlns="http://www.w3.org/2000/svg" viewBox="0 0 76.01 15.23">
  <defs>
    <style>
      .cls-1 {
        font-size: 8.43px;
      }

      .cls-1, .cls-2 {
        font-family: HelveticaNeue-Bold, 'Helvetica Neue';
        font-weight: 700;
      }

      .cls-2 {
        font-size: 3.14px;
      }

      .cls-3 {
        letter-spacing: -.04em;
      }

      .cls-4 {
        letter-spacing: -.04em;
      }

      .cls-5 {
        letter-spacing: -.04em;
      }

      .cls-6 {
        letter-spacing: -.04em;
      }

      .cls-7 {
        fill: #a60f2d;
      }
    </style>
  </defs>
  <g id="Layer_1-2" data-name="Layer 1">
    <g>
      <g>
        <path class="cls-7" d="M9.28,6.73c0-.07-.06-.12-.13-.11-.76.18-1.33.86-1.33,1.67v.41c0,.07.06.12.13.11.76-.18,1.33-.86,1.33-1.67v-.41Z"/>
        <path class="cls-7" d="M7.12,3.58c0,.38.12.74.35,1.04.04.06.13.06.17,0,.23-.3.35-.66.35-1.04s-.12-.74-.35-1.04c-.04-.06-.13-.06-.17,0-.23.3-.35.66-.35,1.04"/>
        <path class="cls-7" d="M9.28,4.45c0-.07-.06-.12-.13-.11-.76.18-1.33.86-1.33,1.67v.41c0,.07.06.12.13.11.76-.18,1.33-.86,1.33-1.67v-.41Z"/>
        <path class="cls-7" d="M7.82,10.59v.41c0,.07.06.12.13.11.76-.18,1.33-.86,1.33-1.67v-.41c0-.07-.06-.12-.13-.11-.76.18-1.33.86-1.33,1.67"/>
        <path class="cls-7" d="M5.84,7.15c0,.81.57,1.5,1.33,1.67.07.02.13-.04.13-.11v-.41c0-.81-.57-1.5-1.33-1.67-.07-.02-.13.04-.13.11v.41Z"/>
        <path class="cls-7" d="M5.97,4.34c-.07-.02-.13.04-.13.11v.41c0,.81.57,1.5,1.33,1.67.07.02.13-.04.13-.11v-.41c0-.81-.57-1.5-1.33-1.67"/>
        <path class="cls-7" d="M13.8,4.32h-2.45c-.24,0-.44-.2-.44-.44V1.43c0-.73-.59-1.32-1.32-1.32h-4.05c-.73,0-1.32.59-1.32,1.32v2.45c0,.24-.2.44-.44.44H1.32c-.73,0-1.32.59-1.32,1.32v4.05c0,.73.59,1.32,1.32,1.32h2.45c.24,0,.44.2.44.44v2.45c0,.73.59,1.32,1.32,1.32h1.77v-3.57c-1.11-.13-1.98-1.08-1.98-2.22v-5.4c0-.14.12-.26.26-.26.35,0,.69.08.99.23-.03-.14-.04-.29-.04-.43,0-.7.31-1.35.84-1.79.11-.09.27-.09.38,0,.54.44.84,1.09.84,1.79,0,.14-.01.29-.04.43.3-.15.63-.23.99-.23.14,0,.26.12.26.26v5.4c0,1.15-.87,2.09-1.98,2.22v3.57h1.77c.73,0,1.32-.59,1.32-1.32v-2.45c0-.24.2-.44.44-.44h2.45c.73,0,1.32-.59,1.32-1.32v-4.05c0-.73-.59-1.32-1.32-1.32"/>
        <path class="cls-7" d="M5.84,9.43c0,.81.57,1.5,1.33,1.67.07.02.13-.04.13-.11v-.41c0-.81-.57-1.5-1.33-1.67-.07-.02-.13.04-.13.11v.41Z"/>
      </g>
      <text class="cls-2" transform="translate(18.22 2.69)"><tspan x="0" y="0">PULLMAN</tspan></text>
      <text class="cls-1" transform="translate(17.82 10.66)"><tspan class="cls-3" x="0" y="0">U</tspan><tspan class="cls-6" x="5.91" y="0">RG</tspan><tspan class="cls-4" x="17.74" y="0">E</tspan><tspan class="cls-6" x="22.87" y="0">N</tspan><tspan class="cls-3" x="28.79" y="0">T</tspan><tspan class="cls-5" x="33.6" y="0"> </tspan><tspan class="cls-3" x="35.62" y="0">CA</tspan><tspan class="cls-5" x="46.97" y="0">R</tspan><tspan x="52.73" y="0">E</tspan></text>
    </g>
  </g>
</svg>